<svg width="414" height="256" viewBox="0 0 414 256" fill="none" xmlns="http://www.w3.org/2000/svg">
<path d="M9.53674e-07 120L414 0V136L0 256L9.53674e-07 120Z" fill="#212125"/>
<path d="M121.878 198.418C118.273 199.486 115.375 199.163 113.184 197.45C111.031 195.726 109.951 192.804 109.943 188.684L109.895 164.924C109.885 159.804 110.855 155.655 112.806 152.476C114.757 149.296 117.823 147.088 122.003 145.85C125.647 144.771 128.583 144.942 130.812 146.364C133.041 147.785 134.159 150.456 134.167 154.376L134.184 163.256L124.347 166.169L124.331 158.549C124.328 157.069 124.154 156.1 123.807 155.642C123.461 155.184 122.866 155.08 122.022 155.33C121.14 155.591 120.527 156.093 120.183 156.835C119.878 157.566 119.726 158.551 119.729 159.791L119.78 185.651C119.783 187.011 119.977 187.955 120.361 188.481C120.746 188.967 121.322 189.097 122.089 188.87C123.623 188.416 124.388 186.889 124.383 184.289L124.364 174.989L134.317 172.041L134.336 181.761C134.354 190.401 130.201 195.954 121.878 198.418ZM137.286 141.805L152.475 137.308C154.891 136.592 156.752 136.621 158.059 137.395C159.403 138.118 160.308 139.451 160.772 141.395C161.236 143.298 161.472 145.85 161.478 149.05C161.484 151.97 161.124 154.358 160.399 156.214C159.673 158.07 158.41 159.584 156.608 160.758C158.105 160.635 159.18 161.097 159.835 162.144C160.528 163.18 160.876 164.758 160.88 166.878L160.804 186.412L151.139 189.273L151.099 169.113C151.096 167.673 150.826 166.833 150.288 166.592C149.75 166.351 148.772 166.441 147.353 166.861L147.4 190.381L137.389 193.345L137.286 141.805ZM149.751 157.205C151.132 156.796 151.819 155.032 151.813 151.912C151.81 150.552 151.751 149.549 151.634 148.903C151.518 148.257 151.306 147.86 150.999 147.711C150.691 147.521 150.25 147.512 149.675 147.682L147.373 148.364L147.392 157.904L149.751 157.205ZM164.576 185.295L164.473 133.755L184.264 127.895L184.284 137.855L174.561 140.734L174.581 150.754L183.901 147.994L183.921 157.714L174.601 160.474L174.624 172.294L184.98 169.227L185 179.247L164.576 185.295ZM186.732 178.734L191.404 125.781L208.146 120.823L212.966 170.966L203.588 173.743L202.881 165.607L196.898 167.379L196.34 175.889L186.732 178.734ZM197.63 158.938L202.117 157.609L199.879 132.036L199.418 132.173L197.63 158.938ZM220.005 168.882L219.922 127.242L214.054 128.98L214.034 119.08L235.666 112.675L235.685 122.575L229.817 124.312L229.9 165.952L220.005 168.882ZM238.328 163.457L238.225 111.917L258.016 106.057L258.035 116.017L248.313 118.896L248.333 128.916L257.653 126.156L257.672 135.876L248.352 138.636L248.376 150.456L258.731 147.389L258.751 157.409L238.328 163.457ZM274.958 101.04L290.146 96.5429C292.562 95.8274 294.423 95.8566 295.73 96.6305C297.074 97.353 297.979 98.6861 298.443 100.63C298.908 102.534 299.143 105.085 299.149 108.285C299.155 111.205 298.795 113.593 298.07 115.449C297.344 117.305 296.081 118.82 294.28 119.993C295.776 119.87 296.851 120.332 297.506 121.379C298.199 122.415 298.547 123.993 298.552 126.113L298.475 145.647L288.81 148.509L288.77 128.349C288.767 126.909 288.497 126.068 287.959 125.827C287.421 125.586 286.443 125.676 285.024 126.096L285.071 149.616L275.06 152.58L274.958 101.04ZM287.422 116.441C288.803 116.032 289.49 114.267 289.484 111.147C289.481 109.787 289.422 108.784 289.305 108.138C289.189 107.492 288.977 107.095 288.67 106.946C288.362 106.757 287.921 106.747 287.346 106.918L285.044 107.599L285.063 117.139L287.422 116.441ZM314.042 141.518C310.053 142.699 307.021 142.336 304.945 140.429C302.868 138.483 301.826 135.209 301.817 130.609L301.768 106.069C301.759 101.629 302.788 97.9826 304.854 95.1294C306.921 92.2361 309.949 90.1989 313.937 89.0178C317.926 87.8368 320.958 88.0796 323.034 89.7463C325.11 91.373 326.152 94.4064 326.161 98.8464L326.21 123.386C326.219 128.026 325.19 131.913 323.124 135.046C321.058 138.179 318.031 140.337 314.042 141.518ZM314.023 132.038C314.905 131.777 315.499 131.201 315.804 130.31C316.109 129.419 316.261 128.253 316.258 126.813L316.208 101.613C316.205 100.493 316.05 99.6389 315.742 99.0497C315.472 98.4092 314.896 98.2196 314.014 98.4808C312.365 98.9691 311.543 100.513 311.548 103.113L311.598 128.253C311.601 129.733 311.776 130.802 312.122 131.46C312.469 132.118 313.103 132.31 314.023 132.038ZM341.791 133.301C337.802 134.482 334.769 134.12 332.693 132.213C330.617 130.266 329.574 126.993 329.565 122.393L329.516 97.8528C329.508 93.4128 330.536 89.7662 332.603 86.9129C334.67 84.0196 337.697 81.9825 341.686 80.8014C345.675 79.6203 348.707 79.8631 350.783 81.5298C352.858 83.1566 353.901 86.1899 353.909 90.6299L353.958 115.17C353.968 119.81 352.939 123.696 350.873 126.83C348.807 129.963 345.78 132.12 341.791 133.301ZM341.772 123.821C342.654 123.56 343.248 122.984 343.553 122.093C343.858 121.202 344.009 120.037 344.006 118.597L343.956 93.397C343.954 92.277 343.799 91.4224 343.491 90.8333C343.221 90.1928 342.645 90.0031 341.763 90.2643C340.113 90.7526 339.291 92.2968 339.297 94.8968L339.347 120.037C339.35 121.517 339.524 122.586 339.871 123.243C340.218 123.901 340.851 124.094 341.772 123.821ZM357.745 128.097L357.642 76.5571L372.715 72.0939L376.92 102.307L381 69.6408L396.188 65.1436L396.29 116.683L387.258 119.358L387.184 82.2181L381.563 121.044L372.703 123.668L366.588 88.3166L366.662 125.457L357.745 128.097Z" fill="white"/>
</svg>
