<svg width="22" height="22" viewBox="0 0 22 22" fill="none" xmlns="http://www.w3.org/2000/svg">
<path d="M16.8438 17.1518H16.1993H5.73425H5.08972H4.44519V18.8611H17.4884V17.1518H16.8438Z" fill="white"/>
<path d="M5.96536 6.54114L5.0686 8.72782L5.64782 9.01313L6.22747 9.29844L6.93474 9.64649L7.46025 8.89583L7.8315 8.36559L8.20232 7.83579L5.96536 6.54114Z" fill="white"/>
<path d="M16.0346 6.54114L13.7551 7.86028L14.1264 8.39008L14.4972 8.92032L15.0055 9.64649L15.7626 9.27395L16.3418 8.98864L16.9215 8.70333L16.0346 6.54114Z" fill="white"/>
<path d="M20.1824 6.38818C19.253 6.38818 18.4847 7.08857 18.3777 7.98963C18.3691 8.06053 18.3648 8.13271 18.3648 8.20576C18.3648 8.3699 18.3868 8.52932 18.428 8.68057C18.4852 8.8924 18.5801 9.0892 18.7047 9.26279L17.4122 9.89916L16.8326 10.1845L16.7604 10.2201H16.76L16.2529 10.4694L14.5836 11.2913L13.3775 9.56873L13.053 9.1051V9.10467L13.0062 9.03806L12.6354 8.50826L11.3884 6.72678C11.6067 6.67607 11.8104 6.58584 11.9909 6.46381C12.1726 6.34178 12.3312 6.18666 12.4584 6.00791C12.6698 5.711 12.7944 5.34791 12.7944 4.95646C12.7944 3.954 11.9793 3.13889 10.9768 3.13889C9.97477 3.13889 9.15922 3.954 9.15922 4.95646C9.15922 5.34404 9.28125 5.70369 9.48879 5.99889C9.61512 6.17849 9.77281 6.33447 9.95371 6.45779C10.1333 6.58068 10.3361 6.67221 10.554 6.7242L9.32207 8.48377L8.95125 9.01357L8.87176 9.12744L8.58 9.54424L7.35711 11.2913L5.73676 10.4938L5.20309 10.2309L5.15754 10.2085L4.57789 9.92322L3.17109 9.23099C3.31504 9.07029 3.43105 8.88381 3.51098 8.67971C3.5909 8.4756 3.63473 8.25389 3.63516 8.02228V8.01885C3.63516 7.01639 2.82004 6.20084 1.81758 6.20084C0.815547 6.20084 0 7.01639 0 8.01885C0 8.93795 0.686211 9.70064 1.57352 9.8201C1.65344 9.83084 1.73465 9.83642 1.81758 9.83642C1.96453 9.83642 2.10719 9.81881 2.24426 9.78572C2.45867 9.73416 2.65848 9.64435 2.83594 9.52404L4.86063 15.2183L5.08965 15.8628H16.8506L17.0796 15.2183L19.0644 9.63748C19.235 9.77111 19.4296 9.87467 19.641 9.94084C19.812 9.99455 19.9938 10.0233 20.1824 10.0233C20.2211 10.0233 20.2593 10.022 20.2971 10.0195C21.2459 9.96017 22 9.16912 22 8.20576C22 7.2033 21.1845 6.38818 20.1824 6.38818Z" fill="white"/>
</svg>
