<svg width="414" height="256" viewBox="0 0 414 256" fill="none" xmlns="http://www.w3.org/2000/svg">
<path d="M9.53674e-07 120L414 0V136L0 256L9.53674e-07 120Z" fill="white"/>
<path d="M114.537 200.79C112.274 201.46 110.222 201.608 108.379 201.233C106.536 200.858 105.076 199.95 103.998 198.508C102.959 197.014 102.437 195.008 102.432 192.488L102.406 179.588L112.129 176.709L112.154 189.009C112.156 189.929 112.33 190.618 112.676 191.075C113.06 191.482 113.636 191.571 114.403 191.344C115.132 191.129 115.669 190.73 116.013 190.147C116.395 189.514 116.586 188.737 116.584 187.817L116.505 148.157L126.458 145.21L126.535 183.85C126.54 186.53 126.027 189.043 124.995 191.39C124.002 193.685 122.586 195.665 120.747 197.33C118.947 198.944 116.877 200.097 114.537 200.79ZM149.813 190.345C145.824 191.526 142.791 191.163 140.715 189.257C138.639 187.31 137.596 184.037 137.587 179.437L137.538 154.897C137.529 150.457 138.558 146.81 140.625 143.957C142.691 141.063 145.719 139.026 149.708 137.845C153.697 136.664 156.729 136.907 158.805 138.574C160.88 140.2 161.922 143.234 161.931 147.674L161.98 172.214C161.989 176.854 160.961 180.74 158.895 183.874C156.829 187.007 153.801 189.164 149.813 190.345ZM149.794 180.865C150.676 180.604 151.27 180.028 151.575 179.137C151.88 178.246 152.031 177.081 152.028 175.641L151.978 150.441C151.976 149.321 151.821 148.466 151.512 147.877C151.243 147.237 150.667 147.047 149.784 147.308C148.135 147.796 147.313 149.341 147.318 151.941L147.368 177.081C147.371 178.561 147.546 179.629 147.893 180.287C148.24 180.945 148.873 181.138 149.794 180.865ZM173.207 182.938L173.105 131.398L182.655 128.57L182.757 180.11L173.207 182.938ZM194.373 176.67L194.27 125.131L204.453 122.115L209.047 145.43L208.998 120.77L218.548 117.942L218.651 169.482L208.985 172.344L203.986 148.009L204.038 173.809L194.373 176.67ZM251.748 108.111L266.937 103.614C269.353 102.898 271.214 102.928 272.521 103.701C273.865 104.424 274.77 105.757 275.234 107.701C275.698 109.604 275.934 112.156 275.94 115.356C275.946 118.276 275.586 120.664 274.861 122.52C274.135 124.376 272.872 125.891 271.07 127.064C272.567 126.941 273.642 127.403 274.297 128.45C274.99 129.486 275.338 131.064 275.342 133.184L275.266 152.718L265.601 155.58L265.561 135.42C265.558 133.98 265.288 133.139 264.75 132.898C264.212 132.657 263.234 132.747 261.815 133.167L261.862 156.687L251.851 159.651L251.748 108.111ZM264.213 123.511C265.594 123.103 266.281 121.338 266.275 118.218C266.272 116.858 266.213 115.855 266.096 115.209C265.98 114.563 265.768 114.166 265.461 114.017C265.153 113.828 264.712 113.818 264.137 113.988L261.835 114.67L261.854 124.21L264.213 123.511ZM298.734 146.249C294.745 147.43 291.713 147.067 289.636 145.161C287.56 143.214 286.517 139.941 286.508 135.341L286.459 110.801C286.451 106.361 287.479 102.714 289.546 99.8608C291.613 96.9675 294.64 94.9304 298.629 93.7493C302.618 92.5682 305.65 92.811 307.726 94.4777C309.801 96.1044 310.844 99.1378 310.853 103.578L310.901 128.118C310.911 132.758 309.882 136.644 307.816 139.778C305.75 142.911 302.723 145.068 298.734 146.249ZM298.715 136.769C299.597 136.508 300.191 135.932 300.496 135.041C300.801 134.15 300.952 132.985 300.95 131.545L300.899 106.345C300.897 105.225 300.742 104.37 300.434 103.781C300.164 103.141 299.588 102.951 298.706 103.212C297.056 103.701 296.234 105.245 296.24 107.845L296.29 132.985C296.293 134.465 296.467 135.534 296.814 136.191C297.161 136.849 297.794 137.042 298.715 136.769ZM334.383 135.693C330.395 136.874 327.362 136.511 325.286 134.605C323.21 132.658 322.167 129.385 322.158 124.785L322.109 100.245C322.1 95.8047 323.129 92.1581 325.196 89.3048C327.262 86.4116 330.29 84.3744 334.279 83.1933C338.268 82.0122 341.3 82.255 343.376 83.9217C345.451 85.5485 346.493 88.5818 346.502 93.0218L346.551 117.562C346.56 122.202 345.532 126.088 343.466 129.222C341.4 132.355 338.372 134.512 334.383 135.693ZM334.365 126.213C335.247 125.952 335.84 125.376 336.146 124.485C336.451 123.594 336.602 122.429 336.599 120.989L336.549 95.7889C336.547 94.6689 336.392 93.8143 336.083 93.2252C335.813 92.5847 335.237 92.395 334.355 92.6562C332.706 93.1446 331.884 94.6887 331.889 97.2887L331.939 122.429C331.942 123.909 332.117 124.978 332.464 125.635C332.811 126.293 333.444 126.486 334.365 126.213ZM358.238 128.149L358.136 76.6095L373.209 72.1463L377.414 102.36L381.493 69.6933L396.681 65.196L396.784 116.736L387.752 119.41L387.678 82.2705L382.056 121.097L373.196 123.72L367.082 88.3691L367.156 125.509L358.238 128.149Z" fill="#212125"/>
</svg>
