<svg width="22" height="22" viewBox="0 0 22 22" fill="none" xmlns="http://www.w3.org/2000/svg">
<path d="M17.8164 15.1387C16.6531 13.776 15.1574 12.7456 13.9608 11.4161C13.8278 11.2832 13.7281 11.1502 13.5952 11.0172C14.7253 9.68774 15.9219 8.35822 17.0852 7.0287C17.7167 6.3307 18.4812 4.63557 17.2514 4.00404C15.9551 3.33928 14.7253 4.23671 13.7282 5.03442C12.6978 5.86537 11.7339 6.79604 10.8697 7.75994C9.9058 6.62985 8.90866 5.53299 7.81181 4.50261C7.01399 3.77138 4.88676 1.74386 3.69024 2.87395C2.52691 3.90433 3.45758 5.56623 4.355 6.43042C4.45472 6.53013 4.58767 6.56337 4.72062 6.53013C6.18309 7.69346 7.4129 9.05622 8.60947 10.4855C7.08052 12.4797 5.68452 14.5737 4.15558 16.5015C4.0891 16.568 4.0891 16.6344 4.0891 16.7341C3.45758 17.1995 3.1252 18.2631 3.69024 18.8614C4.75386 19.9915 6.11662 19.3267 7.147 18.4958C8.77566 17.2328 10.1052 15.4379 11.4015 13.7427C12.3986 14.8396 13.429 15.87 14.6255 16.7674C15.5894 17.4986 17.1183 18.5955 18.3482 17.8642C19.5115 17.1995 18.3814 15.7702 17.8164 15.1387ZM8.90861 7.39432C8.90861 7.32784 8.87537 7.26137 8.84213 7.22813C8.70918 7.06194 8.54299 6.86251 8.41004 6.66308V6.62985C8.67594 6.96223 8.94185 7.32784 9.20775 7.66022C9.10798 7.59375 9.00832 7.49403 8.90861 7.39432ZM12.3321 7.59375C12.2324 7.69346 12.1659 7.82641 12.0662 7.92613C11.9665 7.9926 11.8335 8.09232 11.7338 8.15879C11.9332 7.95937 12.1326 7.7267 12.3321 7.52727C12.3321 7.56051 12.3321 7.56051 12.3321 7.59375Z" fill="white"/>
</svg>
